<svg xmlns="http://www.w3.org/2000/svg" viewBox="0 0 442.74 198.4"><defs><style>.cls-1{fill:#9be17f;}.cls-2{fill:#6dba65;}.cls-3,.cls-5,.cls-8{fill:#337470;}.cls-4{fill:none;}.cls-5{font-size:39.53px;}.cls-5,.cls-8{font-family:Montserrat-Bold, Montserrat;font-weight:700;}.cls-6{letter-spacing:-0.01em;}.cls-7{letter-spacing:-0.03em;}.cls-8{font-size:35.6px;letter-spacing:0.01em;}.cls-9{letter-spacing:0em;}.cls-10{letter-spacing:0.01em;}.cls-11{letter-spacing:0em;}</style></defs><g id="Camada_2" data-name="Camada 2"><g id="Camada_1-2" data-name="Camada 1"><path class="cls-1" d="M151.33,49.36S132.28,26.1,95.17,28.08A75.25,75.25,0,0,0,50,45.78C64.83,14.73,88.63,1.6,91.43.14c29.49-1.65,51.75,11.77,59.66,17.06Z"/><path class="cls-2" d="M91.43.14C88.63,1.6,64.83,14.73,50,45.78A58.45,58.45,0,0,0,40.24,56S31.1,66.52,27.07,84.65c-8.58-12.57-11.4-38.87-11.4-38.87C31.56,20.87,58.2,3.13,88.24.37,89.32.27,90.38.19,91.43.14Z"/><path class="cls-3" d="M27.07,84.65a79.65,79.65,0,0,0-1.85,15.8c-7.84,4.46-15.38,42.91-15.38,42.91A101.62,101.62,0,0,1,5.11,67.92,99.42,99.42,0,0,1,15.67,45.78S18.49,72.08,27.07,84.65Z"/><path class="cls-2" d="M90,198.07a98,98,0,0,1-53.67-21.29A95.89,95.89,0,0,1,9.84,143.36s7.54-38.45,15.38-42.91a83.88,83.88,0,0,0,1,14.23c3.17,20.42,16.09,35,26.73,43.8C64,180.78,89.17,197.55,90,198.07Z"/><path class="cls-1" d="M151.33,152.29V183A99.84,99.84,0,0,1,90,198.08h0c-.78-.52-25.95-17.29-37-39.59a85.54,85.54,0,0,0,15,10.14S116.45,189.4,151.33,152.29Z"/><path class="cls-4" d="M27.08,84.66h0"/><path class="cls-1" d="M151.33,117.64c-4.26.59-32.64,4-56.29-16.7C73.69,82.26,71.5,57.32,71.17,52.45,74.56,58.38,90.45,84.69,121,90.92a67,67,0,0,0,23.56.5A73.55,73.55,0,0,1,151.33,117.64Z"/><path class="cls-2" d="M144.54,91.42a67,67,0,0,1-23.56-.5C90.45,84.69,74.56,58.38,71.17,52.45a69.2,69.2,0,0,0,35.87,24,67.33,67.33,0,0,0,29.08,1.25A69.39,69.39,0,0,1,144.54,91.42Z"/><path class="cls-3" d="M136.12,77.7A67.33,67.33,0,0,1,107,76.45a69.2,69.2,0,0,1-35.87-24c4.4-.68,30.2-4.19,53.32,13.73A67.54,67.54,0,0,1,136.12,77.7Z"/><path class="cls-1" d="M159.15,21.33V178.69l7.42-6.49V91.29a43.7,43.7,0,0,0,27.65-9.84c13.61-11.27,15.17-26.94,15.4-29.87a42.08,42.08,0,0,0-43.05,19.67q-.28-21.9-.56-43.8Z"/><text class="cls-5" transform="translate(217.58 102.86) scale(1.03 1)">SU<tspan class="cls-6" x="56.37" y="0">S</tspan><tspan x="81.19" y="0">TEN</tspan><tspan class="cls-7" x="164.08" y="0">T</tspan><tspan x="187.12" y="0">A</tspan></text><text class="cls-8" transform="translate(220.23 154.99) scale(0.94 1)">S<tspan class="cls-9" x="23" y="0">Ã</tspan><tspan class="cls-10" x="50.19" y="0">O J</tspan><tspan class="cls-11" x="110.42" y="0">OÃ</tspan><tspan class="cls-10" x="167.58" y="0">O</tspan></text></g></g></svg>